<svg width="212" height="330" viewBox="0 0 212 330" fill="none" xmlns="http://www.w3.org/2000/svg">
<g clip-path="url(#clip0_10_20)">
<path d="M180.223 199.751C171.471 185.691 146.091 180.073 139.393 178.807C139.315 178.567 139.342 178.38 139.264 178.141L139.187 177.634C135.353 155.057 129.833 129.488 122.12 105.876C115.27 84.9046 105.84 68.2307 96.441 55.4445L96.5211 55.4184L96.3365 55.1243C78.8044 31.5301 61.0108 20.9546 59.1543 19.8779C59.1543 19.8779 59.1543 19.8779 59.1282 19.7979C59.1282 19.7979 59.102 19.7178 59.0221 19.7439C59.0221 19.7439 58.9959 19.6639 58.9159 19.69L58.5975 19.5283L58.3823 19.9529C58.3823 19.9529 58.3823 19.9529 58.3284 20.0591L58.2746 20.1653L58.2208 20.2714C56.9533 23.1658 49.0168 42.7663 49.1381 72.4021L49.1626 72.7484L49.2426 72.7223C49.3393 88.1927 51.6816 106.473 58.2704 126.643C65.9837 150.257 76.6221 174.153 86.7746 194.666L87.0113 195.12C87.0638 195.281 87.196 195.414 87.2485 195.575C82.911 200.18 65.2337 220.039 66.4672 236.821C68.2219 260.077 98.4365 299.194 109.82 313.989C111.193 315.755 112.302 317.254 113.094 318.324C114.045 319.607 115.718 320.124 117.238 319.628C118.277 319.288 119.106 318.574 119.485 317.565C119.863 316.556 119.869 315.49 119.449 314.476C114.088 302.94 96.8296 264.197 101.143 250.032C103.068 243.734 105.652 238.638 108.122 234.819C114.524 246.016 118.875 252.833 119.033 253.046L119.218 253.34L147.45 244.118L147.426 243.772C147.427 243.506 146.861 235.541 145.525 222.778C149.773 224.402 154.761 226.937 159.953 230.91C171.796 239.798 180.736 281.257 183.219 293.734C183.399 294.827 184.032 295.683 185.014 296.248C185.915 296.84 187.086 296.9 188.045 296.587C189.565 296.09 190.611 294.686 190.62 293.088C190.628 291.757 190.639 289.893 190.704 287.656C191.238 268.969 192.536 219.558 180.223 199.751ZM187.918 295.654C186.807 285.21 178.245 242.74 172.121 225.075C166.153 207.891 145.3 206.375 143.492 206.258C142.32 197.251 141.014 188.375 139.575 179.633C146.565 180.982 171.199 186.755 179.556 200.147C191.709 219.739 190.44 268.964 189.96 287.546C189.894 289.782 189.884 291.646 189.876 292.977C189.841 294.228 189.037 295.288 187.918 295.654ZM144.622 222.453C145.306 228.342 145.757 233.244 146.055 236.867C145.431 239.02 143.522 242.389 137.104 243.335C129.167 244.509 124.558 231.753 123.748 229.272L144.622 222.453C144.596 222.374 144.596 222.374 144.622 222.453ZM119.596 252.331C118.699 250.941 114.587 244.312 108.765 234.078L110.045 233.66L120.316 252.096L119.596 252.331ZM113.735 317.848C112.943 316.778 111.755 315.307 110.461 313.515C99.1042 298.799 69.0217 259.816 67.2656 236.827C66.0275 220.843 83.0371 201.379 87.642 196.509C91.6669 204.495 95.8781 212.509 100.169 220.498L99.9832 220.47C99.9832 220.47 82.3401 234.471 87.9031 252.585C93.3874 270.459 111.627 309.767 116.816 318.88C115.777 319.219 114.501 318.838 113.735 317.848ZM56.7195 26.7855C54.354 35.5307 51.0931 51.8322 53.1155 70.217C55.058 70.2025 58.0926 70.0086 61.3948 69.5499C57.4361 50.1146 58.4483 26.9294 58.6668 21.3659C58.7745 21.1536 58.8559 20.8612 58.9098 20.755C61.6675 22.4231 78.6106 32.8337 95.3506 55.3578C95.3506 55.3578 95.3506 55.3578 95.2706 55.3839C94.8154 55.887 94.2801 56.4161 93.8248 56.9191C93.6403 56.6251 93.4818 56.4111 93.2973 56.1171C92.5052 55.0471 91.6331 54.0031 90.841 52.9331C89.283 50.8732 87.6973 48.9994 86.2438 47.2596C84.7104 45.5459 83.3354 44.0462 82.0127 42.7066C80.77 41.3409 79.5518 40.3215 78.6259 39.3838C76.6403 37.6406 75.4483 36.7012 75.4483 36.7012C75.4483 36.7012 75.7128 36.9691 76.2158 37.425C76.7187 37.8808 77.4324 38.7107 78.2783 39.6745C79.1243 40.6383 80.1547 41.8963 81.3175 43.2881C81.8989 43.984 82.5063 44.76 83.1139 45.5359C83.7214 46.3119 84.3551 47.1679 85.0949 48.0778C86.3884 49.8699 87.8941 51.7697 89.3184 53.9621C90.0304 55.0582 90.7964 56.0482 91.5347 57.2243C91.7453 57.5984 92.036 57.9463 92.2467 58.3205C86.9235 63.1597 80.7558 66.7689 73.6377 69.0941C64.6001 72.0462 55.844 72.3376 49.9917 72.0347C49.9917 72.0347 49.9917 72.0347 49.9117 72.0608C49.795 50.8389 53.9586 34.8625 56.6672 26.6254C56.7733 26.6793 56.7195 26.7855 56.7195 26.7855ZM50.0931 72.8873C51.0775 72.9201 52.168 73.0068 53.3923 72.9613C53.1908 75.596 52.3031 91.0337 58.4197 114.636C64.4579 137.998 85.1614 183.766 89.2077 192.631L103.284 188.033C98.0871 184.859 84.0123 175.371 80.2996 164.005C75.7503 150.078 77.2575 142.499 77.2575 142.499C73.7679 138.59 67.5279 127.074 61.4098 108.345C55.7346 91.2415 60.9641 75.0056 61.8301 72.5082C65.6644 72.0529 69.7403 71.2531 73.9792 69.8684C81.1773 67.5171 87.4249 63.8818 92.8282 59.0164C93.1972 59.6045 93.5402 60.1126 93.9094 60.7006C94.7276 61.8507 95.3859 63.053 96.1503 64.3092C96.9147 65.5654 97.653 66.7416 98.4173 67.9978C99.8662 70.5364 101.341 73.155 102.736 75.7998C103.421 77.0821 104.131 78.4444 104.816 79.7268C105.5 81.0092 106.21 82.3716 106.815 83.6801C108.05 86.377 109.339 88.9679 110.522 91.5048C111.624 94.0678 112.701 96.5508 113.725 98.8737C114.277 100.022 114.67 101.223 115.116 102.317C115.562 103.412 116.008 104.506 116.428 105.521C117.294 107.629 118.081 109.498 118.656 111.259C119.311 112.994 119.888 114.489 120.28 115.689C121.251 118.118 121.801 119.533 121.801 119.533C121.801 119.533 121.411 118.066 120.76 115.533C120.422 114.226 120.005 112.679 119.536 110.971C119.248 110.091 119.121 109.159 118.701 108.144C118.387 107.184 118.047 106.143 117.707 105.103C117.001 102.941 116.243 100.62 115.353 98.165C114.382 95.7359 113.465 93.2007 112.417 90.5314C111.892 89.1969 111.288 87.8884 110.683 86.5799C110.079 85.2714 109.448 83.8829 108.844 82.5744C108.213 81.186 107.529 79.9036 106.818 78.5412C106.107 77.1788 105.503 75.8703 104.792 74.5079C103.318 71.8893 101.843 69.2707 100.368 66.6522C99.6032 65.3959 98.7588 64.1658 97.9944 62.9096C97.23 61.6533 96.4118 60.5033 95.5936 59.3533C95.1183 58.7112 94.723 58.0431 94.2477 57.401C94.7031 56.898 95.2383 56.3688 95.6935 55.8658C105.066 68.572 114.364 85.1119 121.162 105.923C128.875 129.535 134.395 155.105 138.229 177.682L87.5222 194.245C77.2897 173.759 66.651 149.861 58.938 126.249C52.4798 106.478 50.1638 88.2777 50.0931 72.8873ZM143.935 221.704L143.215 221.939L109.384 232.99L108.664 233.225L108.344 233.33C108.318 233.25 108.318 233.25 108.291 233.169C105.868 229.001 103.524 224.805 101.26 220.584C96.7304 212.409 92.4145 204.074 88.3111 195.847C88.259 195.688 88.1264 195.553 88.1004 195.473C88.0743 195.393 88.0482 195.314 88.0482 195.314L88.4481 195.183L88.6081 195.131L89.008 195L90.1277 194.634L91.9962 198.187L92.7329 199.629L93.4697 201.072L103.547 220.811L109.152 231.737L109.471 231.633L110.111 231.424L110.831 231.189L122.908 227.244L105.404 189.644L108.283 188.704L125.787 226.303L128.666 225.363L111.082 187.789L137.475 179.168L137.875 179.037L138.035 178.985L138.675 178.776C138.701 178.856 138.753 179.016 138.699 179.122C138.752 179.282 138.724 179.468 138.75 179.548C140.268 188.531 141.572 197.671 142.823 206.919C143.433 211.768 144.044 216.619 144.601 221.575L143.961 221.784L143.935 221.704Z" fill="white"/>
<path d="M144.212 251.82C144.212 251.82 153.368 256.004 155.536 258.308C152.028 257.594 149.015 258.666 149.015 258.666C154.406 260.537 157.837 269.958 157.837 269.958C154.944 268.689 148.924 269.769 148.924 269.769C153.614 277.893 150.101 287.19 149.804 287.907C149.199 286.599 148.358 284.836 146.952 284.055C145.202 283.032 142.995 282.778 141.003 282.1C138.825 281.395 136.409 280.501 134.9 279.134C133.498 277.82 132.388 276.322 131.44 274.772C129.911 272.259 128.836 269.51 128.081 266.657C127.976 266.336 127.871 266.016 127.821 265.59C124.847 268.952 122.001 273.514 122.001 273.514C121.065 264.961 126.67 257.461 126.67 257.461C126.67 257.461 109.624 269.496 122.856 291.306C122.856 291.306 122.127 283.926 125.172 277.262C125.172 277.262 125.444 290.018 135.115 292.528C144.761 294.958 144.521 295.037 147.967 301.794C151.308 308.499 155.691 309.724 155.691 309.724C155.691 309.724 151.82 302.75 155.959 295.641C160.178 288.504 159.225 278.541 154.783 273.613C154.783 273.613 160.21 273.7 162.688 277.763C162.688 277.763 163.202 267.142 155.787 260.972C155.787 260.972 160.235 260.228 163.287 261.711C163.287 261.711 159.131 253.324 144.212 251.82ZM148.155 296.95C148.207 297.109 148.233 297.189 148.233 297.189C148.233 297.189 148.207 297.109 148.075 296.976C147.943 296.841 147.784 296.628 147.626 296.413C147.203 295.932 146.648 295.316 145.746 294.725C145.296 294.429 144.845 294.133 144.314 293.864C143.784 293.594 143.173 293.351 142.537 293.027C141.926 292.783 141.155 292.592 140.465 292.374C140.092 292.319 139.774 292.157 139.402 292.102C139.03 292.047 138.631 291.911 138.259 291.856C137.489 291.664 136.718 291.473 135.947 291.281C135.177 291.09 134.46 290.793 133.743 290.496C133.425 290.333 133.107 290.172 132.762 289.93C132.63 289.797 132.524 289.742 132.391 289.609C132.259 289.475 132.153 289.42 132.021 289.287C131.518 288.83 131.121 288.429 130.804 288.001C130.091 287.171 129.749 286.397 129.46 285.783C129.277 285.222 129.172 284.902 129.172 284.902C129.172 284.902 129.357 285.196 129.78 285.678C130.203 286.16 130.758 286.776 131.605 287.473C131.976 287.795 132.453 288.171 132.984 288.441C133.09 288.495 133.222 288.628 133.328 288.682C133.434 288.737 133.646 288.844 133.753 288.898C134.045 288.98 134.283 289.167 134.602 289.329C135.212 289.573 135.903 289.79 136.647 289.902C137.418 290.093 138.162 290.204 138.933 290.395C139.305 290.45 139.703 290.586 140.102 290.721C140.474 290.778 140.872 290.913 141.271 291.049C142.041 291.24 142.758 291.537 143.395 291.86C144.748 292.482 145.808 293.287 146.602 294.091C147.395 294.894 147.817 295.643 148 296.203C148.024 296.55 148.102 296.789 148.155 296.95Z" fill="white"/>
<path d="M90.1628 119.415C101.52 115.706 107.764 103.39 104.052 92.0237C100.339 80.6577 88.0283 74.4033 76.6713 78.1131C65.3142 81.823 59.0696 94.1384 62.7823 105.504C66.4151 116.897 78.7258 123.151 90.1628 119.415ZM76.9066 78.8335C87.8637 75.2543 99.6436 81.2391 103.226 92.205C106.808 103.171 100.832 114.955 89.8749 118.534C78.9178 122.113 67.138 116.129 63.556 105.163C59.894 94.2234 65.9494 82.4127 76.9066 78.8335Z" fill="white"/>
<path d="M88.5678 114.532C97.2856 111.685 102.077 102.236 99.2268 93.5111C96.3768 84.7865 86.9317 79.9879 78.2139 82.8356C69.4962 85.6832 64.7051 95.1322 67.555 103.857C70.4311 112.662 79.7702 117.406 88.5678 114.532ZM70.5789 91.7075C70.6605 91.4151 70.7958 91.0166 71.065 90.4858C71.3342 89.955 71.6833 89.3979 72.0863 88.7348C72.5692 88.0456 73.1583 87.4103 73.8273 86.7487C74.5764 86.0612 75.4316 85.4275 76.3929 84.8478C76.9265 84.5849 77.4603 84.3219 77.994 84.059C78.6339 83.85 79.1936 83.6672 79.7535 83.4843C80.3396 83.3814 80.9794 83.1724 81.6715 83.1235C82.0175 83.099 82.3636 83.0746 82.6297 83.0762C82.9758 83.0518 83.3218 83.0273 83.614 83.109C84.3061 83.0601 84.9706 83.1973 85.609 83.2547C86.2733 83.392 86.9378 83.5292 87.6284 83.7465C88.9034 84.1274 90.1769 84.7743 91.2905 85.4736C92.4302 86.2528 93.4099 87.0844 94.2558 88.0483C94.4142 88.2623 94.6788 88.5302 94.8371 88.7442C95.0218 89.0382 95.1801 89.2522 95.3386 89.4663C95.6815 89.9743 95.9446 90.5084 96.2875 91.0166C96.5506 91.5507 96.7336 92.1109 96.9704 92.5652C97.1273 93.0454 97.2842 93.5256 97.3349 93.9519C97.5687 94.9386 97.6702 95.7912 97.6918 96.6701C97.6871 97.4688 97.6302 98.1076 97.5471 98.6662C97.381 99.7834 97.218 100.368 97.218 100.368C97.218 100.368 97.1657 100.208 97.1672 99.9418C97.1687 99.6755 97.038 99.2753 96.935 98.6889C96.8581 98.1826 96.6489 97.5422 96.4936 96.7957C96.2844 96.1553 95.9968 95.2749 95.6016 94.6067C95.3908 94.2327 95.154 93.7785 94.9171 93.3245C94.6265 92.9764 94.4957 92.5762 94.1789 92.1482C93.8882 91.8003 93.6513 91.3461 93.2545 90.9442C93.0961 90.7303 92.9377 90.5163 92.7254 90.4085C92.567 90.1944 92.3547 90.0865 92.1963 89.8726C91.4288 89.1489 90.5275 88.5574 89.6263 87.966C89.0956 87.6965 88.645 87.4007 88.1405 87.2112C87.6099 86.9416 87.1315 86.8321 86.6271 86.6426C85.5381 86.2896 84.5015 86.0967 83.411 86.01C82.3205 85.9232 81.2823 85.9967 80.1903 86.1762C79.6843 86.2529 79.1244 86.4358 78.6984 86.4864C78.1386 86.6693 77.7387 86.7999 77.2588 86.9566C76.299 87.2701 75.4716 87.7176 74.724 88.1389C73.2552 89.0617 72.0786 90.0661 71.3557 90.8337C70.9543 91.2306 70.6866 91.4952 70.499 91.7336C70.3114 91.9722 70.1775 92.1045 70.1775 92.1045C70.1775 92.1045 70.4975 92 70.5789 91.7075Z" fill="white"/>
<path d="M77.6909 81.2347C78.0001 81.1337 78.1689 80.801 78.0678 80.4915C77.9667 80.1821 77.6341 80.0132 77.3249 80.1142C77.0157 80.2152 76.847 80.5479 76.948 80.8573C77.0491 81.1667 77.3817 81.3357 77.6909 81.2347Z" fill="white"/>
<path d="M101.569 93.3661C101.889 93.2616 102.051 92.9431 101.946 92.623C101.841 92.3027 101.523 92.141 101.203 92.2455C100.883 92.35 100.722 92.6685 100.826 92.9887C100.931 93.3089 101.249 93.4706 101.569 93.3661Z" fill="white"/>
<path d="M89.4828 117.334C89.792 117.233 89.9607 116.9 89.8598 116.591C89.7586 116.281 89.4262 116.113 89.117 116.214C88.8078 116.315 88.6388 116.647 88.74 116.957C88.8409 117.266 89.1736 117.435 89.4828 117.334Z" fill="white"/>
<path d="M65.1326 104.028C64.8127 104.133 64.6512 104.451 64.7558 104.771C64.8604 105.091 65.1787 105.253 65.4987 105.149C65.8186 105.044 65.9801 104.726 65.8755 104.406C65.7709 104.085 65.4525 103.924 65.1326 104.028Z" fill="white"/>
<path d="M84.4015 80.3715C84.7476 80.347 85.0413 80.1625 85.0168 79.8162C84.9922 79.4699 84.8076 79.1759 84.4615 79.2004C84.1155 79.2247 83.8217 79.4094 83.8463 79.7556C83.7648 80.048 84.0294 80.3159 84.4015 80.3715Z" fill="white"/>
<path d="M101.692 99.7039C101.717 100.05 101.901 100.344 102.247 100.32C102.593 100.295 102.887 100.111 102.863 99.7645C102.838 99.4182 102.653 99.1242 102.307 99.1486C102.041 99.147 101.774 99.4115 101.692 99.7039Z" fill="white"/>
<path d="M82.4062 117.076C82.0603 117.101 81.7664 117.285 81.7911 117.632C81.8157 117.978 82.0004 118.272 82.3463 118.248C82.6924 118.223 82.9862 118.039 82.9616 117.692C82.9369 117.346 82.7526 117.052 82.4062 117.076Z" fill="white"/>
<path d="M65.0096 97.6902C64.985 97.344 64.8004 97.0499 64.4544 97.0744C64.1083 97.0988 63.8146 97.2834 63.8391 97.6297C63.8638 97.9759 64.0483 98.27 64.3944 98.2455C64.7666 98.3011 65.0342 98.0365 65.0096 97.6902Z" fill="white"/>
<path d="M91.7379 81.6955C91.8995 81.377 91.7149 81.083 91.4765 80.8951C91.2382 80.7072 90.8644 80.9179 90.6768 81.1563C90.5153 81.4748 90.6998 81.7689 90.9382 81.9567C91.2566 82.1185 91.5503 81.9339 91.7379 81.6955Z" fill="white"/>
<path d="M100.137 106.324C99.9756 106.643 100.16 106.937 100.399 107.125C100.717 107.286 101.011 107.102 101.198 106.863C101.36 106.545 101.175 106.251 100.937 106.063C100.619 105.901 100.299 106.006 100.137 106.324Z" fill="white"/>
<path d="M75.0699 115.753C74.9084 116.071 75.0929 116.365 75.3314 116.553C75.6497 116.715 75.9435 116.53 76.1312 116.292C76.2927 115.973 76.108 115.679 75.8697 115.491C75.5513 115.33 75.1514 115.46 75.0699 115.753Z" fill="white"/>
<path d="M66.6708 91.124C66.8323 90.8055 66.6478 90.5115 66.4093 90.3235C66.1709 90.1357 65.7971 90.3463 65.6095 90.5848C65.448 90.9034 65.6326 91.1974 65.871 91.3853C66.1893 91.547 66.5093 91.4425 66.6708 91.124Z" fill="white"/>
<path d="M97.6457 86.2323C97.8334 85.9938 97.8888 85.6214 97.6504 85.4335C97.4119 85.2457 97.0398 85.1901 96.8521 85.4286C96.6644 85.667 96.6091 86.0394 96.8474 86.2273C97.0859 86.4152 97.4319 86.3908 97.6457 86.2323Z" fill="white"/>
<path d="M95.9258 112.129C95.7382 112.367 95.6827 112.739 95.9212 112.928C96.1597 113.116 96.5318 113.171 96.7195 112.933C96.9071 112.694 96.9623 112.321 96.7241 112.134C96.4857 111.946 96.1396 111.971 95.9258 112.129Z" fill="white"/>
<path d="M69.0822 111.242C68.8946 111.48 68.8392 111.853 69.0776 112.041C69.316 112.229 69.6882 112.284 69.8758 112.046C70.0635 111.807 70.1188 111.435 69.8805 111.247C69.722 111.033 69.3499 110.977 69.0822 111.242Z" fill="white"/>
<path d="M70.8558 85.2391C71.0435 85.0006 71.0988 84.6283 70.8605 84.4404C70.6221 84.2525 70.2498 84.1969 70.0622 84.4354C69.8746 84.6738 69.8192 85.0463 70.0576 85.2341C70.2159 85.4481 70.6681 85.4776 70.8558 85.2391Z" fill="white"/>
<path d="M121.7 146.052C117.987 134.686 105.677 128.432 94.3198 132.142C82.9629 135.851 76.7183 148.167 80.4311 159.533C84.1438 170.899 96.4544 177.154 107.811 173.444C119.168 169.734 125.413 157.418 121.7 146.052ZM81.1508 159.298C77.5688 148.332 83.5442 136.547 94.5013 132.968C105.458 129.389 117.238 135.374 120.82 146.34C124.402 157.306 118.427 169.09 107.47 172.67C96.5928 176.223 84.7328 170.264 81.1508 159.298Z" fill="white"/>
<path d="M116.902 147.62C114.052 138.896 104.607 134.097 95.8888 136.945C87.1711 139.792 82.3799 149.241 85.2297 157.966C88.0796 166.69 97.525 171.489 106.243 168.642C114.96 165.794 119.751 156.344 116.902 147.62ZM95.1198 141.094C94.1601 141.407 93.3325 141.854 92.5848 142.275C91.1159 143.198 89.9395 144.203 89.2166 144.97C88.8152 145.368 88.5475 145.632 88.3597 145.87C88.1723 146.109 88.0384 146.241 88.0384 146.241C88.0384 146.241 88.0662 146.055 88.1737 145.842C88.2554 145.55 88.3907 145.152 88.6599 144.621C88.9291 144.09 89.2782 143.533 89.6813 142.87C90.164 142.18 90.753 141.545 91.4221 140.883C92.1711 140.196 93.0262 139.562 93.9877 138.983C94.5215 138.72 95.055 138.456 95.5887 138.194C96.2285 137.985 96.7884 137.802 97.3483 137.619C97.9342 137.516 98.574 137.307 99.2663 137.259C99.6123 137.234 99.9584 137.209 100.224 137.211C100.571 137.187 100.917 137.162 101.209 137.244C101.901 137.195 102.565 137.332 103.204 137.39C103.868 137.527 104.533 137.664 105.223 137.882C106.498 138.263 107.772 138.909 108.885 139.608C110.025 140.388 111.005 141.22 111.851 142.184C112.009 142.397 112.274 142.665 112.432 142.879C112.617 143.174 112.775 143.387 112.933 143.601C113.276 144.109 113.539 144.644 113.882 145.151C114.145 145.686 114.328 146.246 114.565 146.7C114.722 147.18 114.879 147.661 114.93 148.087C115.163 149.073 115.265 149.926 115.286 150.805C115.282 151.604 115.225 152.242 115.142 152.801C114.976 153.918 114.813 154.503 114.813 154.503C114.813 154.503 114.76 154.343 114.762 154.076C114.764 153.811 114.633 153.411 114.53 152.824C114.453 152.317 114.244 151.677 114.089 150.931C113.879 150.29 113.592 149.41 113.196 148.742C112.986 148.368 112.749 147.914 112.512 147.459C112.221 147.111 112.09 146.711 111.774 146.283C111.483 145.935 111.246 145.481 110.849 145.08C110.691 144.865 110.532 144.651 110.32 144.543C110.162 144.329 109.95 144.222 109.791 144.007C109.024 143.284 108.122 142.692 107.221 142.101C106.69 141.831 106.24 141.536 105.735 141.346C105.205 141.076 104.726 140.967 104.222 140.778C103.133 140.424 102.096 140.232 101.006 140.145C99.9154 140.058 98.8771 140.131 97.7852 140.311C97.2793 140.388 96.7194 140.571 96.2931 140.621C96.0796 140.78 95.5997 140.937 95.1198 141.094Z" fill="white"/>
<path d="M95.3656 135.343C95.6748 135.242 95.8438 134.91 95.7426 134.6C95.6414 134.29 95.309 134.122 94.9998 134.223C94.6906 134.324 94.5216 134.656 94.6228 134.966C94.7241 135.276 95.0564 135.444 95.3656 135.343Z" fill="white"/>
<path d="M119.244 147.474C119.564 147.37 119.725 147.052 119.621 146.732C119.516 146.411 119.198 146.25 118.878 146.355C118.558 146.459 118.396 146.777 118.501 147.097C118.606 147.418 118.924 147.579 119.244 147.474Z" fill="white"/>
<path d="M107.508 170.619C107.404 170.299 107.086 170.138 106.766 170.242C106.446 170.347 106.284 170.665 106.389 170.985C106.493 171.305 106.812 171.468 107.132 171.363C107.452 171.259 107.613 170.94 107.508 170.619Z" fill="white"/>
<path d="M82.8076 158.137C82.4876 158.242 82.3259 158.56 82.4306 158.88C82.5352 159.2 82.8534 159.361 83.1733 159.257C83.4932 159.152 83.6549 158.835 83.5503 158.514C83.4456 158.194 83.1274 158.033 82.8076 158.137Z" fill="white"/>
<path d="M102.05 134.4C102.396 134.376 102.69 134.191 102.665 133.844C102.641 133.499 102.456 133.205 102.11 133.229C101.764 133.253 101.47 133.438 101.495 133.784C101.44 134.156 101.704 134.425 102.05 134.4Z" fill="white"/>
<path d="M119.367 153.812C119.392 154.159 119.576 154.453 119.922 154.429C120.268 154.404 120.562 154.219 120.537 153.873C120.513 153.527 120.328 153.233 119.982 153.257C119.69 153.176 119.422 153.44 119.367 153.812Z" fill="white"/>
<path d="M100.081 171.186C99.7352 171.21 99.4413 171.395 99.466 171.741C99.4903 172.087 99.675 172.381 100.021 172.357C100.367 172.332 100.661 172.147 100.636 171.802C100.612 171.455 100.427 171.161 100.081 171.186Z" fill="white"/>
<path d="M82.6844 151.799C82.6597 151.453 82.4751 151.158 82.1292 151.183C81.7832 151.208 81.4894 151.392 81.514 151.739C81.5387 152.085 81.7229 152.378 82.0693 152.355C82.4152 152.33 82.7091 152.146 82.6844 151.799Z" fill="white"/>
<path d="M109.387 135.724C109.548 135.405 109.364 135.111 109.125 134.924C108.887 134.736 108.513 134.946 108.326 135.185C108.164 135.503 108.348 135.797 108.587 135.986C108.905 136.147 109.225 136.042 109.387 135.724Z" fill="white"/>
<path d="M117.786 160.353C117.624 160.672 117.809 160.966 118.047 161.153C118.366 161.315 118.66 161.131 118.847 160.892C119.009 160.574 118.824 160.28 118.586 160.091C118.267 159.93 117.948 160.035 117.786 160.353Z" fill="white"/>
<path d="M92.7185 169.781C92.5572 170.1 92.7414 170.393 92.98 170.582C93.2985 170.744 93.592 170.559 93.7798 170.32C93.9411 170.002 93.7568 169.708 93.5183 169.52C93.1999 169.358 92.8263 169.569 92.7185 169.781Z" fill="white"/>
<path d="M84.3456 145.233C84.5069 144.914 84.3227 144.621 84.0841 144.432C83.7656 144.27 83.4721 144.456 83.2843 144.694C83.123 145.013 83.3072 145.306 83.5458 145.494C83.8642 145.656 84.1578 145.471 84.3456 145.233Z" fill="white"/>
<path d="M115.294 140.261C115.482 140.022 115.538 139.651 115.299 139.462C115.06 139.274 114.688 139.219 114.501 139.457C114.313 139.696 114.258 140.069 114.496 140.256C114.761 140.524 115.107 140.499 115.294 140.261Z" fill="white"/>
<path d="M113.601 166.238C113.413 166.476 113.358 166.849 113.596 167.036C113.835 167.224 114.207 167.279 114.394 167.041C114.582 166.803 114.637 166.431 114.399 166.242C114.161 166.055 113.788 165.999 113.601 166.238Z" fill="white"/>
<path d="M86.7308 165.271C86.5431 165.509 86.4877 165.881 86.7263 166.069C86.9648 166.258 87.3369 166.313 87.5246 166.075C87.7122 165.836 87.7674 165.463 87.5293 165.276C87.3707 165.062 87.0247 165.086 86.7308 165.271Z" fill="white"/>
<path d="M88.5308 139.348C88.7184 139.109 88.7736 138.737 88.5355 138.549C88.2969 138.361 87.9248 138.306 87.7371 138.544C87.5493 138.782 87.494 139.155 87.7325 139.343C87.891 139.557 88.317 139.507 88.5308 139.348Z" fill="white"/>
<path d="M75.6101 72.9676C75.9301 72.8631 76.0916 72.5445 75.987 72.2243C75.8824 71.9042 75.5641 71.7424 75.2441 71.847C74.9241 71.9515 74.7626 72.27 74.8672 72.5901C74.9718 72.9103 75.2902 73.0721 75.6101 72.9676Z" fill="white"/>
<path d="M91.4321 65.5846C91.7521 65.4801 91.9136 65.1616 91.809 64.8415C91.7044 64.5213 91.3861 64.3596 91.0661 64.4641C90.7462 64.5686 90.5847 64.8871 90.6892 65.2072C90.7938 65.5274 91.1123 65.6891 91.4321 65.5846Z" fill="white"/>
<path d="M86.7026 68.9898C87.0225 68.8853 87.1841 68.5668 87.0795 68.2466C86.9749 67.9265 86.6565 67.7648 86.3366 67.8693C86.0167 67.9738 85.8552 68.2923 85.9597 68.6124C86.0643 68.9326 86.3827 69.0943 86.7026 68.9898Z" fill="white"/>
<path d="M81.0763 71.0049C81.3962 70.9004 81.5578 70.5818 81.4532 70.2616C81.3486 69.9415 81.0301 69.7798 80.7103 69.8843C80.3903 69.9888 80.2288 70.3073 80.3334 70.6274C80.438 70.9476 80.8364 71.0832 81.0763 71.0049Z" fill="white"/>
<path d="M63.8578 76.0092C64.167 75.9082 64.3358 75.5755 64.2347 75.2661C64.1336 74.9566 63.801 74.7876 63.4918 74.8886C63.1826 74.9896 63.0138 75.3223 63.1149 75.6318C63.216 75.9412 63.5486 76.1102 63.8578 76.0092Z" fill="white"/>
<path d="M70.1992 74.5579C70.5191 74.4534 70.6806 74.1348 70.576 73.8147C70.4714 73.4945 70.1531 73.3328 69.8331 73.4373C69.5132 73.5418 69.3517 73.8603 69.4563 74.1804C69.5609 74.5006 69.8793 74.6624 70.1992 74.5579Z" fill="white"/>
<path d="M52.5423 77.1366C52.8515 77.0356 53.0202 76.7028 52.9192 76.3934C52.8181 76.0839 52.4854 75.9149 52.1762 76.0159C51.867 76.1169 51.6983 76.4497 51.7994 76.7592C51.9004 77.0686 52.2331 77.2376 52.5423 77.1366Z" fill="white"/>
</g>
<defs>
<clipPath id="clip0_10_20">
<rect width="122" height="306" fill="white" transform="translate(0.507568 38.5035) rotate(-18.0898)"/>
</clipPath>
</defs>
</svg>
