<svg width="373" height="343" viewBox="0 0 373 343" fill="none" xmlns="http://www.w3.org/2000/svg">
<g clip-path="url(#clip0_10_66)">
<path d="M327.915 106.02L219.901 108.482L168.024 59.0055C167.42 58.4877 153.349 45.1386 147.547 46.9491C141.502 48.8353 137.681 67.7674 137.56 68.5116L122.971 138.816L32.942 198.064L37.8358 213.747L110.093 200.997L107.821 211.855L150.778 198.451L155.094 212.284L235.285 187.262L230.968 173.429L274.006 159.999L265.962 152.359L332.809 121.704L327.915 106.02ZM331.777 121.231L265.308 151.68L223.019 111.392L266.911 144.914L277.142 140.574L282.653 107.787L286.421 107.671L281.208 138.864L286.673 136.541L291.093 107.625L298.813 107.423L295.343 132.864L326.144 119.9L327.379 107.423L331.696 121.256L331.777 121.231ZM230.717 172.624L151.091 197.471L153.129 183.595L153.14 183.063L251.706 152.306L252.19 152.155L252.673 152.005L261.377 149.289L264.39 152.144L264.758 152.47L265.125 152.796L272.41 159.702L230.742 172.704L230.717 172.624ZM234.228 186.708L231.488 187.563L227.423 174.535L230.162 173.68L234.228 186.708ZM34.1495 199.099L42.262 208.659L74.9697 201.807L57.6463 182.853L64.1112 178.629L84.1914 199.899L90.0088 198.702L67.9811 176.01L71.1456 173.963L94.3806 197.691L105.265 195.442L121.822 144.205L110.245 200.066L38.4157 212.771L34.1495 199.099ZM123.888 138.353L136.797 75.9868C137.436 76.052 138.876 76.1321 140.906 76.1166C140.814 76.6748 140.582 77.6298 140.258 79.143C140.128 79.0072 139.916 78.8967 139.674 78.9723C139.352 79.0727 139.185 79.3897 139.285 79.7114C139.385 80.0331 139.703 80.1988 140.025 80.0984L140.106 80.0731C138.163 89.152 133.287 111.503 127.61 137.81C127.579 137.996 127.524 138.101 127.494 138.287C127.463 138.473 127.408 138.579 127.377 138.765C123.699 155.887 119.698 174.523 115.928 192.203L121.57 190.443L122.053 190.292L122.537 190.141L153.404 180.509L155.746 150.035C139.439 132.353 148.881 111.314 148.881 111.314L146.732 75.7991C149.623 75.4265 152.891 74.8479 156.357 73.7664C160.871 72.358 165.666 70.1555 170.378 66.8318C172.471 69.0031 175.216 71.8532 178.486 75.2457C180.317 77.1456 182.385 79.2364 184.583 81.463C186.756 83.6092 189.085 85.9713 191.415 88.3335C193.824 90.6706 196.284 93.1686 198.799 95.5612C201.34 98.0339 203.881 100.507 206.446 103.06C209.067 105.508 211.608 107.98 214.148 110.453C214.384 110.644 214.54 110.861 214.776 111.051C214.908 111.187 215.013 111.242 215.038 111.323C215.169 111.459 215.275 111.514 215.405 111.65C217.529 113.635 219.652 115.62 221.669 117.55C226.543 122.119 231.157 126.416 235.197 130.01C243.115 137.247 248.629 141.881 248.629 141.881C248.629 141.881 243.796 136.593 236.26 128.883C232.493 125.028 228.096 120.575 223.277 115.901C221.471 114.081 219.559 112.207 217.648 110.332C217.517 110.196 217.411 110.141 217.361 109.98C217.255 109.925 217.124 109.789 217.099 109.709C216.707 109.302 216.34 108.975 215.973 108.648C213.432 106.175 210.892 103.702 208.326 101.149C205.705 98.7018 203.164 96.2291 200.624 93.756C198.083 91.2834 195.513 88.9963 193.103 86.6594C190.693 84.3223 188.254 82.171 186 80.0502C183.745 77.9292 181.543 75.9689 179.575 74.1998C177.453 72.2145 175.51 70.5258 173.78 68.9477C173.835 68.8422 173.866 68.656 173.841 68.5756C173.74 68.2539 173.423 68.0882 173.101 68.1886C173.02 68.214 173.02 68.214 173.02 68.214C172.286 67.5604 171.657 66.9623 171.053 66.4446C171.703 65.9772 172.409 65.4038 173.033 64.856L219.119 108.814L219.487 109.14L219.854 109.467L261.015 148.696L252.231 151.437L251.747 151.588L251.102 151.789L122.152 192.026L121.669 192.177L121.185 192.328L112.239 195.12L123.786 139.444L123.902 138.967L123.888 138.353ZM147.016 48.0855C145.615 50.1114 142.094 56.6822 141.114 73.6687C142.61 73.6431 144.428 73.517 146.463 73.2352C145.363 60.0751 147.029 50.1114 147.556 47.829C147.637 47.8037 147.717 47.7787 147.798 47.7534C153.117 46.0936 167.293 59.4981 167.505 59.6086L172.274 64.122C171.569 64.6951 170.918 65.1629 170.213 65.736C167.642 63.4492 166.067 62.0872 166.067 62.0872C166.067 62.0872 167.4 63.5248 169.779 66.0478C155.695 76.1795 139.879 75.3779 137.055 75.1119L138.411 68.6873C138.36 68.5264 141.801 51.2132 147.016 48.0855ZM111.041 200.348L111.157 199.87L112.012 195.809L115.316 194.778L113.327 199.457L113.131 199.96L112.934 200.463L109.209 209.215L110.924 200.825L111.041 200.348ZM151.584 198.2L157.225 196.439L161.29 209.468L155.65 211.228L151.584 198.2ZM164.398 194.201L167.139 193.346L171.204 206.374L168.463 207.23L164.398 194.201ZM171.168 192.089L223.474 175.767L227.539 188.796L175.233 205.117L171.168 192.089Z" fill="white"/>
<path d="M211.884 208.067C211.884 208.067 225.13 214.524 228.345 218.022C223.296 216.862 218.832 218.431 218.832 218.431C226.73 221.35 231.576 235.461 231.576 235.461C227.318 233.435 218.665 234.9 218.665 234.9C225.365 247.018 220.18 260.728 219.811 261.813C218.916 259.798 217.767 257.245 215.708 256.033C213.121 254.546 210.035 254.009 207.146 252.968C204.07 251.898 200.522 250.446 198.349 248.3C196.331 246.37 194.723 244.048 193.38 241.731C191.214 237.905 189.667 233.799 188.629 229.621C188.478 229.138 188.383 228.551 188.232 228.068C183.917 232.945 179.751 239.717 179.751 239.717C178.429 226.979 186.684 216.019 186.684 216.019C186.684 216.019 161.78 233.145 180.776 265.963C180.776 265.963 179.821 254.963 184.313 245.266C184.313 245.266 184.656 264.222 198.62 268.162C212.584 272.1 212.343 272.175 217.162 282.233C221.981 292.292 228.324 294.196 228.324 294.196C228.324 294.196 222.685 283.776 228.873 273.283C234.982 262.817 233.729 248.028 227.416 240.554C227.416 240.554 235.205 240.858 238.795 246.976C238.795 246.976 239.641 231.267 228.936 221.898C228.936 221.898 235.387 221.032 239.776 223.193C239.428 223.214 233.564 210.657 211.884 208.067ZM217.144 275.09C217.22 275.332 217.245 275.412 217.245 275.412C217.245 275.412 217.22 275.332 217.063 275.116C216.907 274.899 216.727 274.602 216.44 274.251C215.866 273.547 214.951 272.597 213.794 271.722C213.216 271.286 212.451 270.819 211.686 270.351C210.921 269.884 210.02 269.547 209.093 269.13C208.167 268.713 207.105 268.426 206.123 268.115C205.62 267.919 205.061 267.828 204.557 267.632C204.079 267.517 203.496 267.346 202.937 267.256C201.875 266.969 200.731 266.708 199.563 266.366C198.396 266.025 197.364 265.552 196.333 265.08C195.804 264.804 195.381 264.583 194.908 264.201C194.671 264.009 194.541 263.874 194.329 263.763C194.093 263.573 193.962 263.437 193.726 263.245C192.991 262.593 192.443 261.969 191.975 261.321C190.959 260.049 190.421 258.893 190.065 258.033C189.709 257.173 189.638 256.666 189.638 256.666C189.638 256.666 189.95 257.098 190.524 257.802C191.096 258.505 191.932 259.481 193.114 260.436C193.718 260.954 194.321 261.471 195.086 261.939C195.298 262.049 195.429 262.185 195.641 262.295C195.851 262.406 196.088 262.597 196.274 262.627C196.697 262.848 197.039 263.095 197.517 263.21C198.444 263.627 199.4 263.858 200.462 264.145C201.525 264.431 202.667 264.692 203.81 264.953C204.394 265.124 204.953 265.214 205.537 265.385C206.121 265.556 206.624 265.752 207.208 265.923C208.296 266.289 209.327 266.762 210.359 267.234C212.262 268.229 213.867 269.405 215.044 270.626C216.115 271.793 216.758 273.005 217.115 273.863C217.049 274.502 217.069 274.849 217.144 275.09Z" fill="white"/>
<path d="M178.366 145.713C189.487 142.243 195.703 130.418 192.239 119.32C188.776 108.221 176.938 102.03 165.817 105.5C154.695 108.97 148.479 120.795 151.943 131.894C155.406 142.993 167.243 149.184 178.366 145.713ZM166.068 106.304C176.706 102.985 188.121 108.955 191.434 119.571C194.746 130.187 188.753 141.589 178.114 144.909C167.475 148.229 156.061 142.259 152.748 131.642C149.436 121.026 155.349 109.649 166.068 106.304Z" fill="white"/>
<path d="M176.91 141.049C185.453 138.383 190.225 129.304 187.565 120.778C184.904 112.253 175.816 107.499 167.273 110.165C158.729 112.831 153.957 121.91 156.617 130.435C159.277 138.96 168.366 143.714 176.91 141.049ZM159.761 118.687C159.846 118.395 159.989 117.998 160.291 117.55C160.488 117.048 160.846 116.495 161.365 115.892C161.803 115.313 162.378 114.604 163.165 114.006C163.845 113.352 164.711 112.729 165.709 112.241C166.167 112.01 166.788 111.728 167.246 111.497C167.81 111.321 168.374 111.145 169.019 110.944C169.608 110.848 170.253 110.647 170.867 110.632C171.215 110.611 171.482 110.617 171.804 110.516C172.152 110.496 172.419 110.501 172.791 110.561C173.406 110.546 174.07 110.691 174.71 110.756C175.374 110.902 176.038 111.048 176.622 111.219C177.896 111.616 179.058 112.224 180.166 112.937C181.192 113.676 182.244 114.495 182.998 115.496C183.154 115.712 183.416 115.983 183.571 116.199C183.727 116.416 183.908 116.712 184.064 116.928C184.401 117.441 184.633 117.898 184.888 118.436C185.119 118.894 185.295 119.457 185.552 119.994C185.702 120.477 185.828 120.879 185.897 121.387C186.118 122.377 186.208 123.232 186.272 124.006C186.337 124.78 186.191 125.443 186.18 125.976C185.997 127.092 185.801 127.595 185.801 127.595C185.801 127.595 185.751 127.434 185.756 127.168C185.762 126.901 185.636 126.499 185.566 125.991C185.495 125.484 185.32 124.921 185.175 124.172C184.974 123.528 184.723 122.724 184.416 122.026C184.21 121.648 184.06 121.166 183.773 120.814C183.486 120.462 183.361 120.06 183.074 119.708C182.788 119.356 182.556 118.899 182.189 118.572C182.033 118.356 181.903 118.22 181.666 118.03C181.511 117.813 181.299 117.703 181.143 117.487C180.383 116.753 179.568 116.125 178.697 115.602C178.275 115.381 177.747 115.104 177.324 114.883C176.82 114.687 176.317 114.491 175.814 114.295C174.832 113.984 173.77 113.697 172.702 113.678C171.69 113.552 170.567 113.638 169.631 113.753C169.122 113.824 168.638 113.975 168.21 114.02C167.646 114.196 167.243 114.322 166.84 114.448C165.953 114.725 165.118 115.162 164.361 115.574C162.85 116.399 161.736 117.364 161.081 118.098C160.753 118.465 160.401 118.752 160.209 118.988C160.017 119.225 159.962 119.33 159.962 119.33C159.962 119.33 159.675 118.978 159.761 118.687Z" fill="white"/>
<path d="M166.796 108.637C167.118 108.536 167.285 108.219 167.185 107.897C167.084 107.576 166.766 107.41 166.445 107.51C166.122 107.611 165.956 107.928 166.056 108.25C166.157 108.571 166.473 108.737 166.796 108.637Z" fill="white"/>
<path d="M189.836 120.687C190.158 120.587 190.324 120.27 190.224 119.948C190.124 119.627 189.807 119.461 189.484 119.561C189.163 119.662 188.996 119.978 189.097 120.3C189.197 120.622 189.514 120.788 189.836 120.687Z" fill="white"/>
<path d="M177.387 142.577C177.064 142.677 176.898 142.994 176.998 143.316C177.099 143.638 177.416 143.804 177.738 143.703C178.06 143.603 178.227 143.285 178.127 142.964C177.945 142.667 177.628 142.501 177.387 142.577Z" fill="white"/>
<path d="M154.346 130.526C154.024 130.627 153.857 130.943 153.958 131.265C154.058 131.587 154.375 131.753 154.698 131.652C155.019 131.552 155.186 131.235 155.086 130.913C154.986 130.591 154.668 130.426 154.346 130.526Z" fill="white"/>
<path d="M173.272 107.851C173.539 107.856 173.836 107.675 173.897 107.303C173.902 107.037 173.722 106.74 173.349 106.68C173.082 106.675 172.785 106.856 172.724 107.228C172.744 107.575 173.005 107.846 173.272 107.851Z" fill="white"/>
<path d="M189.876 126.765C189.87 127.031 190.051 127.328 190.423 127.388C190.691 127.393 190.987 127.212 191.048 126.84C191.053 126.574 190.873 126.277 190.5 126.217C190.153 126.237 189.881 126.498 189.876 126.765Z" fill="white"/>
<path d="M170.91 143.362C170.643 143.357 170.346 143.538 170.285 143.91C170.28 144.176 170.46 144.473 170.833 144.534C171.1 144.538 171.397 144.358 171.458 143.985C171.438 143.639 171.176 143.367 170.91 143.362Z" fill="white"/>
<path d="M154.307 124.448C154.312 124.182 154.131 123.885 153.759 123.825C153.492 123.82 153.194 124.001 153.133 124.373C153.129 124.64 153.309 124.936 153.682 124.996C154.029 124.977 154.221 124.74 154.307 124.448Z" fill="white"/>
<path d="M180.426 109.238C180.512 108.946 180.411 108.624 180.2 108.514C179.908 108.428 179.586 108.529 179.475 108.74C179.389 109.031 179.49 109.353 179.701 109.464C179.912 109.575 180.26 109.554 180.426 109.238Z" fill="white"/>
<path d="M188.252 133.185C188.166 133.476 188.267 133.798 188.478 133.908C188.77 133.994 189.093 133.893 189.204 133.682C189.29 133.39 189.189 133.069 188.978 132.958C188.661 132.792 188.338 132.893 188.252 133.185Z" fill="white"/>
<path d="M163.756 141.976C163.67 142.267 163.77 142.589 163.982 142.7C164.274 142.785 164.596 142.684 164.707 142.473C164.792 142.182 164.692 141.86 164.482 141.749C164.27 141.639 163.867 141.765 163.756 141.976Z" fill="white"/>
<path d="M155.955 118.109C156.041 117.818 155.94 117.496 155.729 117.385C155.437 117.3 155.114 117.401 155.003 117.612C154.892 117.823 155.018 118.225 155.229 118.336C155.441 118.446 155.763 118.345 155.955 118.109Z" fill="white"/>
<path d="M186.077 113.741C186.268 113.504 186.329 113.132 186.092 112.941C185.856 112.75 185.484 112.69 185.292 112.926C185.1 113.163 185.039 113.535 185.276 113.726C185.513 113.917 185.86 113.896 186.077 113.741Z" fill="white"/>
<path d="M184.083 138.81C183.891 139.047 183.83 139.419 184.066 139.61C184.303 139.801 184.676 139.861 184.867 139.625C185.058 139.388 185.119 139.016 184.883 138.825C184.646 138.635 184.274 138.574 184.083 138.81Z" fill="white"/>
<path d="M158.05 137.578C157.859 137.814 157.798 138.187 158.034 138.377C158.27 138.569 158.643 138.629 158.834 138.393C159.027 138.156 159.087 137.784 158.851 137.593C158.694 137.377 158.323 137.317 158.05 137.578Z" fill="white"/>
<path d="M160.125 112.483C160.316 112.247 160.377 111.875 160.141 111.684C159.904 111.493 159.531 111.433 159.34 111.669C159.149 111.905 159.088 112.277 159.324 112.468C159.561 112.659 159.908 112.639 160.125 112.483Z" fill="white"/>
<path d="M152.031 79.1761C152.353 79.0758 152.52 78.7589 152.42 78.4372C152.319 78.1154 152.002 77.9498 151.68 78.0502C151.357 78.1509 151.191 78.4675 151.291 78.7893C151.392 79.111 151.709 79.2768 152.031 79.1761Z" fill="white"/>
<path d="M157.929 77.9537C158.252 77.853 158.418 77.5363 158.317 77.2146C158.217 76.8929 157.9 76.727 157.577 76.8276C157.255 76.9283 157.089 77.245 157.189 77.5667C157.37 77.8634 157.687 78.0291 157.929 77.9537Z" fill="white"/>
<path d="M163.556 75.5799C163.878 75.4795 164.045 75.1626 163.945 74.8409C163.844 74.5191 163.527 74.3535 163.205 74.4539C162.882 74.5546 162.716 74.8712 162.816 75.193C162.917 75.5147 163.234 75.6806 163.556 75.5799Z" fill="white"/>
<path d="M168.791 72.7992C169.113 72.6985 169.279 72.3819 169.179 72.0602C169.079 71.7385 168.762 71.5725 168.439 71.6732C168.117 71.7739 167.95 72.0906 168.051 72.4123C168.151 72.734 168.468 72.8998 168.791 72.7992Z" fill="white"/>
</g>
<defs>
<clipPath id="clip0_10_66">
<rect width="309" height="261" fill="white" transform="translate(0.140808 92.9459) rotate(-17.3301)"/>
</clipPath>
</defs>
</svg>
