<svg width="382" height="406" viewBox="0 0 382 406" fill="none" xmlns="http://www.w3.org/2000/svg">
<g clip-path="url(#clip0_10_91)">
<path d="M201.55 136.732L178.368 65.4212C171.336 43.7907 140.293 45.0099 139.993 45.0304L139.924 45.053L139.854 45.0756C139.598 45.2359 113.773 62.5033 120.805 84.1338L143.896 155.166L57.9069 262.352L57.7435 262.559L78.5594 294.907L175.49 252.827L186.537 286.808L190.917 285.385L194.818 297.386L213.728 291.238C215.081 293.036 216.526 294.881 218.133 296.75C219.12 297.895 220.552 298.279 221.942 297.827C223.332 297.375 224.311 296.13 224.389 294.717C224.59 292.259 224.675 289.917 224.712 287.668L243.76 281.475L239.858 269.475L244.239 268.051L233.215 234.139L335.99 211.221L333.805 172.816L201.55 136.732ZM233.011 233.511L232.965 233.372L266.636 226.052L233.011 233.511ZM232.52 234.365L243.317 267.579L239.632 268.777L223.85 273.907C220.891 255.581 212.083 244.327 206.152 238.616C205.164 237.703 203.825 237.367 202.573 237.774C201.322 238.18 200.367 239.263 200.174 240.56C198.952 247.206 198.398 258.033 202.849 270.781C199.5 262.844 197.076 254.914 194.31 246.169L184.47 218.971C184.47 218.971 176.284 218.855 169.543 206.156C162.871 193.436 170.203 182.179 170.203 182.179L163.842 164.266C168.17 163.63 173.126 162.56 178.34 160.865C184.944 158.718 192.064 155.555 198.916 150.858C199.055 150.813 199.101 150.72 199.241 150.675C199.38 150.63 199.427 150.538 199.566 150.493C200.077 150.172 200.495 149.804 201.005 149.484C201.436 150.81 201.867 152.136 202.321 153.532C203.818 158.136 205.339 162.58 206.746 166.906C209.651 175.605 212.421 183.654 214.828 190.586C217.236 197.519 219.257 203.265 220.712 207.266C221.44 209.267 222.031 210.85 222.394 211.966C222.826 213.06 223.008 213.618 223.008 213.618C223.008 213.618 222.826 213.06 222.533 211.921C222.17 210.805 221.74 209.247 221.129 207.131C219.883 203.062 218.209 197.202 216.08 190.179C213.951 183.157 211.458 175.017 208.692 166.273C207.286 161.947 205.881 157.389 204.407 152.854C204.225 152.295 204.044 151.737 203.885 151.248L203.955 151.225C204.233 151.135 204.373 150.858 204.283 150.58C204.192 150.3 203.915 150.159 203.638 150.249L203.567 150.272C203.34 149.574 203.091 148.806 202.864 148.109C203.283 147.742 203.771 147.351 204.282 147.031L229.392 224.272L232.364 233.413L232.432 233.622L232.545 233.971L232.659 234.32L232.52 234.365ZM242.861 281.074L240.288 281.91L236.908 271.514L233.572 272.598L236.952 282.995L224.855 286.927C224.883 282.52 224.562 278.459 223.961 274.719L239.186 269.77L242.861 281.074ZM218.76 296.315C217.268 294.563 215.845 292.787 214.515 291.06C214.4 290.943 214.378 290.873 214.263 290.756C214.147 290.639 214.125 290.57 214.01 290.453C211.396 286.905 209.267 283.431 207.485 280.075C207.439 279.936 207.347 279.889 207.302 279.749C207.257 279.609 207.165 279.562 207.119 279.423C198.783 263 199.266 248.879 200.704 240.773C200.896 239.708 201.618 238.856 202.661 238.517C202.8 238.472 203.009 238.404 203.17 238.428C202.474 238.887 201.519 239.968 201.529 242.126C201.575 245.582 200.711 261.602 209.581 277.774C209.741 278.031 209.809 278.24 209.947 278.427C209.992 278.566 210.084 278.613 210.13 278.753C210.175 278.893 210.267 278.94 210.312 279.079C212.805 283.67 214.771 287.119 216.351 289.615C216.396 289.754 216.489 289.801 216.534 289.941C216.579 290.08 216.672 290.128 216.717 290.267C219.854 295.188 221.627 296.385 223.436 295.566C223.154 296.353 222.502 296.949 221.668 297.221C220.694 297.537 219.517 297.226 218.76 296.315ZM206.015 293.051L202.636 282.655L200.758 283.265L204.138 293.662L202.956 294.046L199.576 283.65L194.571 285.277L197.951 295.673L195.378 296.509L191.681 285.136L206.906 280.187C208.689 283.542 210.84 287.085 213.361 290.587L205.993 292.982L206.015 293.051ZM58.6912 262.637L80.9052 234.971L98.1331 249.661L66.8635 272.17L59.7677 264.293L58.6912 262.637ZM138.361 47.1039C133.891 51.7973 122.006 66.076 124.913 81.8726C126.671 81.8412 128.799 81.7666 131.344 81.5566C127.972 66.2198 137.163 50.0394 139.477 46.2784C139.778 46.026 139.965 45.8882 140.104 45.8431C142 45.7667 170.795 45.2011 177.605 65.4379C176.883 66.0582 176.14 66.6084 175.396 67.1587C175.328 66.9494 175.238 66.6702 175.17 66.4609C174.737 65.3671 174.556 64.8089 174.556 64.8089C174.556 64.8089 174.737 65.3671 175.031 66.5061C175.099 66.7154 175.19 66.9945 175.258 67.2038C151.625 85.07 124.253 83.8617 121.34 83.6513C115.786 66.0924 132.622 51.4384 138.361 47.1039ZM277.781 186.092L284.052 159.982L286.753 160.724L280.626 186.093L277.781 186.092ZM278.927 158.64L272.277 186.184L222.672 186.339L203.206 141.826L201.822 137.569L279.92 158.856L278.927 158.64ZM200.696 136.469L200.832 136.889L200.968 137.307L203.849 146.169C203.36 146.559 202.941 146.926 202.5 147.224C201.593 144.433 200.685 141.642 199.755 138.781C199.528 138.083 199.324 137.456 199.097 136.758C199.052 136.619 199.007 136.479 198.961 136.339C198.916 136.199 198.871 136.06 198.825 135.921C197.623 132.222 196.421 128.524 195.241 124.896C193.744 120.291 192.223 115.848 190.817 111.522C189.341 107.218 187.958 102.962 186.595 99.007C185.233 95.0524 183.939 91.307 182.735 87.8408C180.327 80.9087 178.305 75.1624 176.851 71.1606C176.35 69.8573 176.01 68.8107 175.693 67.8339C176.436 67.2836 177.179 66.7334 177.901 66.1131L200.765 136.447L200.696 136.469ZM144.386 154.543L121.612 84.4886C122.306 84.4945 123.716 84.5761 125.635 84.5694C126.812 88.6616 138.035 127.677 142.457 141.515C143.228 143.888 144.475 147.725 146.04 152.54C146.086 152.679 146.131 152.819 146.176 152.958C146.222 153.098 146.267 153.238 146.313 153.377C147.197 156.098 148.173 159.099 149.216 162.308C150.071 162.339 151.136 162.301 152.292 162.312C152.431 162.267 152.523 162.313 152.662 162.268C152.801 162.223 152.893 162.271 153.032 162.225C155.693 162.131 159.001 161.905 162.797 161.288L155.937 141.839C155.937 141.839 149.889 140.025 144.241 129.98C138.593 119.935 142.029 106.86 142.029 106.86C140.565 104.25 133.23 86.6523 132.16 84.0685C137.528 83.5578 144.543 82.4349 152.051 79.9941C159.629 77.5307 167.769 73.727 175.554 67.879C175.849 68.7861 176.142 69.925 176.551 71.181C177.797 75.2506 179.47 81.11 181.6 88.1327C182.664 91.6441 183.82 95.4346 185.043 99.4344C186.267 103.434 187.65 107.691 188.987 112.039C190.394 116.365 191.798 120.924 193.272 125.459C194.315 128.669 195.359 131.878 196.402 135.088C196.448 135.228 196.493 135.368 196.538 135.506C196.584 135.646 196.629 135.786 196.675 135.926C197.037 137.041 197.4 138.158 197.786 139.345C198.784 142.415 199.759 145.415 200.757 148.485C200.27 148.875 199.828 149.173 199.318 149.493C199.201 149.608 199.132 149.631 198.993 149.676C198.853 149.721 198.806 149.813 198.668 149.858C181.573 161.588 163.174 163.865 153.759 164.226C153.62 164.271 153.528 164.224 153.39 164.269C153.251 164.314 153.158 164.268 153.019 164.313C150.198 164.381 148.325 164.295 147.7 164.267L144.751 155.196L144.615 154.778L144.525 154.498L144.386 154.543ZM218.472 257.833C219.064 259.184 219.61 260.627 220.157 262.069C219.633 260.696 219.087 259.254 218.472 257.833ZM144.371 156.862L155.655 208.125L115.418 237.098L93.8428 218.729L93.19 219.559L144.099 156.026L144.371 156.862ZM90.4399 222.922L110.865 240.353L108.495 242.049L88.6222 225.133L90.4399 222.922ZM175.31 252.037L175.356 252.177L143.355 266.052L175.31 252.037ZM176.255 252.578L176.142 252.23L176.028 251.881L147.856 165.219C148.319 165.223 149.105 165.276 150.099 165.262C150.349 166.029 150.598 166.797 150.848 167.564C150.733 167.447 150.549 167.352 150.339 167.42C150.062 167.511 149.922 167.788 150.012 168.067C150.103 168.346 150.38 168.488 150.657 168.398C150.866 168.33 150.96 168.145 150.984 167.983C159.399 193.869 170.648 228.71 173.056 235.643C174.123 238.69 175.867 244.527 177.86 251.131C177.906 251.271 177.928 251.34 177.974 251.48C178.019 251.62 178.042 251.689 178.087 251.829C182.322 265.805 187.279 282.941 188.07 285.615L187.097 285.931L176.255 252.578ZM332.151 185.93L293.622 186.111L298.918 164.099L333.154 173.414L333.258 175.386L332.151 185.93Z" fill="white"/>
<path d="M230.279 295.81C230.279 295.81 240.495 300.514 242.952 303.109C239.072 302.287 235.642 303.557 235.642 303.557C241.687 305.603 245.459 316.258 245.459 316.258C242.23 314.839 235.47 316.033 235.47 316.033C240.709 325.054 236.734 335.527 236.451 336.313C235.813 334.824 234.878 332.89 233.195 331.971C231.214 330.841 228.788 330.472 226.572 329.804C224.171 329.041 221.449 327.998 219.772 326.382C218.231 324.955 216.97 323.205 215.941 321.456C214.248 318.611 213.088 315.517 212.229 312.402C212.116 312.053 212.049 311.611 211.936 311.263C208.605 314.968 205.451 320.16 205.451 320.16C204.401 310.549 210.675 302.183 210.675 302.183C210.675 302.183 191.558 315.496 206.272 339.951C206.272 339.951 205.493 331.641 208.869 324.295C208.869 324.295 209.219 338.609 219.955 341.368C230.76 344.104 230.481 344.195 234.249 351.765C238.017 359.335 242.841 360.699 242.841 360.699C242.841 360.699 238.474 352.937 243.172 344.93C247.872 336.921 246.855 325.757 241.918 320.264C241.918 320.264 247.953 320.385 250.723 324.884C250.723 324.884 251.308 312.968 243.072 306.078C243.072 306.078 248.049 305.309 251.415 306.915C251.624 306.847 246.966 297.484 230.279 295.81ZM234.631 346.317C234.676 346.457 234.722 346.597 234.722 346.597C234.722 346.597 234.699 346.526 234.561 346.34C234.445 346.223 234.285 345.967 234.056 345.733C233.643 345.172 232.976 344.541 231.986 343.859C231.503 343.554 230.927 343.201 230.352 342.848C229.706 342.518 229.083 342.258 228.368 341.951C227.653 341.643 226.821 341.45 226.06 341.234C225.644 341.138 225.298 341.019 224.813 340.945C224.398 340.849 223.982 340.753 223.567 340.656C222.735 340.464 221.834 340.293 220.98 340.032C220.126 339.769 219.272 339.507 218.535 339.129C218.165 338.94 217.797 338.752 217.475 338.47C217.29 338.376 217.175 338.259 217.061 338.143C216.946 338.025 216.762 337.931 216.624 337.744C216.095 337.299 215.613 336.762 215.245 336.341C214.488 335.43 214.031 334.498 213.827 333.87C213.554 333.265 213.51 332.893 213.51 332.893C213.51 332.893 213.762 333.197 214.175 333.757C214.657 334.294 215.277 335.019 216.197 335.723C216.634 336.121 217.141 336.496 217.717 336.848C217.832 336.966 217.993 336.991 218.108 337.107C218.292 337.202 218.407 337.319 218.591 337.413C218.869 337.555 219.237 337.743 219.584 337.862C220.298 338.17 221.06 338.385 221.821 338.6C222.653 338.793 223.484 338.986 224.385 339.156C224.801 339.252 225.216 339.348 225.724 339.492C226.14 339.589 226.578 339.754 226.993 339.851C227.847 340.113 228.655 340.468 229.37 340.775C230.823 341.461 232.112 342.353 232.939 343.242C233.835 344.107 234.292 345.039 234.496 345.667C234.495 345.899 234.563 346.108 234.631 346.317Z" fill="white"/>
<path d="M137.529 87.1063C137.807 87.016 137.948 86.7387 137.858 86.4597C137.767 86.1806 137.489 86.0393 137.212 86.1295C136.933 86.2201 136.793 86.4971 136.884 86.7763C136.974 87.0553 137.251 87.1969 137.529 87.1063Z" fill="white"/>
<path d="M142.252 86.2656C142.53 86.175 142.671 85.898 142.58 85.6188C142.489 85.3397 142.213 85.1981 141.934 85.2887C141.656 85.3789 141.516 85.656 141.607 85.9351C141.698 86.2142 142.043 86.3333 142.252 86.2656Z" fill="white"/>
<path d="M147.254 85.1023C147.523 85.0148 147.67 84.7253 147.582 84.4555C147.495 84.1858 147.206 84.0379 146.937 84.1254C146.668 84.2126 146.522 84.5021 146.609 84.7718C146.697 85.0416 146.986 85.1894 147.254 85.1023Z" fill="white"/>
<path d="M152.488 83.9407C152.757 83.8535 152.903 83.564 152.816 83.2943C152.728 83.0245 152.439 82.8767 152.171 82.9638C151.902 83.0513 151.755 83.3408 151.843 83.6106C151.93 83.8803 152.219 84.0282 152.488 83.9407Z" fill="white"/>
<path d="M166.332 77.8202C166.602 77.7327 166.748 77.4432 166.661 77.1734C166.573 76.9037 166.284 76.7558 166.015 76.8433C165.747 76.9305 165.6 77.22 165.688 77.4897C165.775 77.7595 166.064 77.9073 166.332 77.8202Z" fill="white"/>
<path d="M170.717 75.7005C170.986 75.613 171.133 75.3235 171.045 75.0538C170.957 74.784 170.669 74.6362 170.399 74.7236C170.131 74.8108 169.984 75.1006 170.071 75.3704C170.159 75.6401 170.449 75.7877 170.717 75.7005Z" fill="white"/>
<path d="M174.434 72.9491C174.704 72.8616 174.85 72.572 174.763 72.3023C174.675 72.0326 174.386 71.8847 174.117 71.9722C173.849 72.0594 173.701 72.3492 173.789 72.6189C173.876 72.8886 174.166 73.0362 174.434 72.9491Z" fill="white"/>
<path d="M177.503 70.3312C177.773 70.2437 177.919 69.9543 177.832 69.6845C177.744 69.4148 177.455 69.2668 177.186 69.3543C176.918 69.4415 176.771 69.731 176.859 70.0007C176.946 70.2705 177.235 70.4184 177.503 70.3312Z" fill="white"/>
<path d="M124.321 87.6198C124.59 87.5323 124.737 87.2429 124.649 86.9731C124.561 86.7034 124.273 86.5554 124.003 86.6429C123.735 86.7301 123.589 87.0196 123.676 87.2893C123.764 87.5591 124.053 87.707 124.321 87.6198Z" fill="white"/>
<path d="M161.996 79.8472C162.265 79.7597 162.411 79.4702 162.324 79.2005C162.236 78.9307 161.947 78.7828 161.678 78.8703C161.409 78.9578 161.262 79.2472 161.35 79.517C161.438 79.7867 161.727 79.9347 161.996 79.8472Z" fill="white"/>
<path d="M157.265 81.8478C157.543 81.7575 157.684 81.4802 157.594 81.201C157.503 80.9219 157.226 80.7806 156.948 80.8709C156.669 80.9615 156.529 81.2385 156.62 81.5176C156.71 81.7967 156.987 81.9383 157.265 81.8478Z" fill="white"/>
<path d="M168.496 166.997C168.775 166.906 168.915 166.629 168.824 166.349C168.733 166.071 168.457 165.928 168.178 166.019C167.9 166.109 167.76 166.387 167.851 166.666C167.942 166.945 168.288 167.064 168.496 166.997Z" fill="white"/>
<path d="M173.498 165.833C173.777 165.742 173.917 165.466 173.826 165.186C173.736 164.907 173.459 164.766 173.181 164.856C172.903 164.947 172.763 165.224 172.853 165.502C172.944 165.782 173.22 165.923 173.498 165.833Z" fill="white"/>
<path d="M178.732 164.671C179.001 164.584 179.147 164.294 179.06 164.025C178.972 163.755 178.683 163.607 178.415 163.694C178.146 163.782 177.999 164.071 178.087 164.341C178.174 164.61 178.463 164.758 178.732 164.671Z" fill="white"/>
<path d="M192.577 158.551C192.846 158.464 192.992 158.174 192.905 157.904C192.817 157.634 192.528 157.486 192.259 157.573C191.991 157.661 191.844 157.95 191.932 158.22C192.02 158.49 192.308 158.638 192.577 158.551Z" fill="white"/>
<path d="M196.961 156.431C197.23 156.343 197.377 156.054 197.289 155.785C197.201 155.515 196.912 155.367 196.643 155.454C196.375 155.541 196.228 155.831 196.315 156.101C196.403 156.37 196.693 156.518 196.961 156.431Z" fill="white"/>
<path d="M200.361 152.703C200.292 152.726 200.292 152.726 200.222 152.748C200.036 152.885 199.942 153.071 200.01 153.28C200.078 153.489 200.286 153.653 200.494 153.585C200.564 153.563 200.564 153.563 200.633 153.54C200.912 153.449 201.052 153.172 200.961 152.894C200.916 152.754 200.64 152.612 200.361 152.703Z" fill="white"/>
<path d="M188.24 160.578C188.509 160.491 188.656 160.201 188.568 159.931C188.48 159.661 188.191 159.513 187.922 159.601C187.653 159.688 187.506 159.978 187.594 160.248C187.682 160.518 187.971 160.666 188.24 160.578Z" fill="white"/>
<path d="M183.51 162.579C183.787 162.488 183.928 162.211 183.838 161.931C183.747 161.653 183.47 161.512 183.192 161.602C182.913 161.692 182.773 161.969 182.864 162.248C182.955 162.528 183.231 162.669 183.51 162.579Z" fill="white"/>
<path d="M183.224 112.755C179.754 102.08 168.228 96.1827 157.592 99.6403C146.955 103.098 141.101 114.645 144.571 125.321C148.042 135.996 159.567 141.894 170.204 138.436C180.84 134.978 186.695 123.431 183.224 112.755ZM145.336 125.072C141.979 114.745 147.599 103.66 157.888 100.316C168.177 96.9707 179.242 102.632 182.599 112.959C185.956 123.286 180.335 134.371 170.046 137.715C159.757 141.06 148.693 135.399 145.336 125.072Z" fill="white"/>
<path d="M178.705 114.224C176.029 105.991 167.27 101.509 159.066 104.176C150.863 106.842 146.413 115.618 149.09 123.852C151.766 132.085 160.526 136.567 168.729 133.9C176.955 131.303 181.382 122.458 178.705 114.224ZM158.417 108.09C157.583 108.361 156.794 108.772 156.075 109.16C154.658 110.006 153.589 110.971 152.89 111.661C152.542 112.006 152.262 112.328 152.099 112.536C151.936 112.743 151.82 112.858 151.82 112.858C151.82 112.858 151.844 112.696 151.914 112.441C151.985 112.187 152.172 111.817 152.407 111.355C152.641 110.894 152.922 110.339 153.412 109.717C153.832 109.118 154.391 108.473 155.042 107.876C155.693 107.278 156.553 106.613 157.481 106.157C157.923 105.859 158.548 105.656 158.943 105.45C159.499 105.27 160.055 105.089 160.611 104.908C161.19 104.797 161.746 104.616 162.348 104.575C162.648 104.554 162.949 104.534 163.25 104.513C163.55 104.493 163.874 104.542 164.175 104.521C164.776 104.48 165.423 104.578 166.07 104.676C166.717 104.774 167.294 104.896 167.917 105.156C169.117 105.537 170.293 106.081 171.353 106.739C172.412 107.398 173.378 108.241 174.135 109.152C174.366 109.386 174.503 109.573 174.733 109.807C174.893 110.063 175.053 110.32 175.191 110.507C175.488 110.95 175.739 111.485 176.038 111.928C176.266 112.394 176.447 112.953 176.676 113.418C176.834 113.907 176.901 114.348 177.037 114.767C177.263 115.696 177.372 116.509 177.391 117.275C177.409 118.04 177.383 118.666 177.309 119.153C177.188 120.195 176.976 120.727 176.976 120.727C176.976 120.727 176.93 120.588 176.909 120.286C176.888 119.984 176.844 119.613 176.755 119.101C176.666 118.59 176.554 118.01 176.35 117.382C176.146 116.754 175.896 115.986 175.531 115.334C175.324 114.938 175.119 114.542 174.913 114.146C174.638 113.772 174.455 113.446 174.18 113.072C173.905 112.699 173.63 112.326 173.285 111.975C173.148 111.788 172.941 111.624 172.803 111.437C172.666 111.25 172.458 111.086 172.251 110.922C171.562 110.22 170.687 109.656 169.834 109.162C169.373 108.926 168.982 108.667 168.451 108.454C167.99 108.218 167.482 108.075 167.044 107.909C166.098 107.599 165.035 107.404 164.018 107.349C162.979 107.224 162.006 107.309 161.057 107.463C160.617 107.529 160.062 107.71 159.691 107.753C159.251 107.819 158.904 107.932 158.417 108.09Z" fill="white"/>
<path d="M158.567 102.641C158.836 102.553 158.982 102.264 158.895 101.994C158.807 101.724 158.518 101.577 158.25 101.664C157.981 101.751 157.834 102.041 157.922 102.31C158.009 102.58 158.298 102.728 158.567 102.641Z" fill="white"/>
<path d="M180.95 114.035C181.219 113.947 181.365 113.658 181.278 113.388C181.19 113.118 180.901 112.971 180.632 113.058C180.364 113.145 180.216 113.435 180.304 113.705C180.392 113.974 180.681 114.122 180.95 114.035Z" fill="white"/>
<path d="M169.569 136.482C169.837 136.395 169.984 136.105 169.896 135.836C169.808 135.566 169.519 135.418 169.251 135.505C168.982 135.593 168.835 135.882 168.923 136.152C169.011 136.422 169.299 136.569 169.569 136.482Z" fill="white"/>
<path d="M146.915 124.019C146.637 124.109 146.497 124.386 146.588 124.665C146.678 124.944 146.955 125.086 147.232 124.996C147.511 124.905 147.651 124.628 147.561 124.349C147.47 124.07 147.193 123.928 146.915 124.019Z" fill="white"/>
<path d="M164.839 101.836C165.14 101.815 165.395 101.655 165.443 101.331C165.422 101.029 165.262 100.773 164.939 100.724C164.639 100.744 164.383 100.905 164.335 101.229C164.309 101.623 164.539 101.857 164.839 101.836Z" fill="white"/>
<path d="M181.051 120.02C181.072 120.321 181.232 120.578 181.555 120.627C181.857 120.606 182.112 120.446 182.16 120.122C182.138 119.82 181.978 119.564 181.655 119.515C181.354 119.535 181.099 119.695 181.051 120.02Z" fill="white"/>
<path d="M163.048 136.287C162.748 136.308 162.492 136.468 162.444 136.792C162.465 137.094 162.625 137.35 162.949 137.399C163.272 137.449 163.504 137.219 163.553 136.894C163.509 136.523 163.28 136.289 163.048 136.287Z" fill="white"/>
<path d="M146.768 118.126C146.747 117.824 146.586 117.568 146.262 117.519C145.962 117.539 145.706 117.7 145.658 118.024C145.679 118.326 145.839 118.582 146.163 118.631C146.464 118.611 146.789 118.428 146.768 118.126Z" fill="white"/>
<path d="M171.723 103.147C171.863 102.87 171.749 102.522 171.473 102.38C171.196 102.239 170.849 102.351 170.709 102.628C170.567 102.906 170.681 103.255 170.958 103.396C171.304 103.515 171.652 103.402 171.723 103.147Z" fill="white"/>
<path d="M179.6 126.2C179.46 126.477 179.574 126.826 179.85 126.968C180.127 127.109 180.474 126.996 180.615 126.719C180.756 126.442 180.642 126.093 180.365 125.952C180.019 125.833 179.742 125.923 179.6 126.2Z" fill="white"/>
<path d="M156.096 134.998C155.955 135.276 156.068 135.624 156.345 135.766C156.622 135.907 156.97 135.794 157.11 135.517C157.25 135.24 157.137 134.891 156.861 134.75C156.584 134.608 156.236 134.721 156.096 134.998Z" fill="white"/>
<path d="M148.287 111.923C148.428 111.646 148.314 111.297 148.037 111.156C147.761 111.014 147.414 111.127 147.272 111.404C147.132 111.681 147.246 112.03 147.522 112.172C147.799 112.313 148.146 112.2 148.287 111.923Z" fill="white"/>
<path d="M177.245 107.37C177.479 107.14 177.457 106.838 177.297 106.581C177.067 106.348 176.766 106.368 176.511 106.528C176.278 106.758 176.299 107.06 176.46 107.317C176.689 107.551 177.083 107.577 177.245 107.37Z" fill="white"/>
<path d="M175.635 131.733C175.401 131.963 175.423 132.264 175.583 132.521C175.813 132.755 176.114 132.734 176.369 132.574C176.602 132.344 176.581 132.042 176.42 131.786C176.191 131.552 175.867 131.503 175.635 131.733Z" fill="white"/>
<path d="M150.572 130.776C150.34 131.006 150.361 131.308 150.521 131.564C150.751 131.798 151.052 131.778 151.307 131.617C151.539 131.388 151.518 131.086 151.358 130.829C151.128 130.595 150.805 130.546 150.572 130.776Z" fill="white"/>
<path d="M152.253 106.39C152.486 106.161 152.464 105.859 152.304 105.602C152.075 105.368 151.774 105.389 151.518 105.549C151.286 105.779 151.307 106.081 151.468 106.337C151.628 106.594 152.02 106.621 152.253 106.39Z" fill="white"/>
<path d="M182.43 176.045C171.793 179.503 165.939 191.049 169.409 201.725C172.88 212.401 184.404 218.299 195.042 214.841C205.678 211.383 211.532 199.835 208.062 189.16C204.592 178.484 193.066 172.587 182.43 176.045ZM194.792 214.073C184.503 217.418 173.439 211.756 170.082 201.429C166.725 191.103 172.345 180.017 182.634 176.673C192.923 173.328 203.987 178.99 207.344 189.316C210.701 199.643 205.081 210.728 194.792 214.073Z" fill="white"/>
<path d="M183.904 180.58C175.701 183.247 171.251 192.023 173.927 200.257C176.604 208.49 185.364 212.972 193.567 210.305C201.771 207.638 206.219 198.862 203.543 190.629C200.866 182.395 192.108 177.914 183.904 180.58ZM199.09 185.442C199.319 185.675 199.457 185.862 199.687 186.096C199.847 186.352 200.007 186.61 200.144 186.796C200.443 187.24 200.694 187.775 200.991 188.218C201.22 188.684 201.401 189.242 201.629 189.708C201.788 190.197 201.855 190.638 201.991 191.056C202.216 191.986 202.327 192.798 202.345 193.564C202.363 194.33 202.337 194.956 202.263 195.443C202.142 196.485 201.93 197.017 201.93 197.017C201.93 197.017 201.884 196.877 201.863 196.576C201.843 196.273 201.799 195.902 201.709 195.391C201.62 194.88 201.508 194.299 201.304 193.672C201.099 193.043 200.85 192.275 200.484 191.624C200.279 191.227 200.073 190.831 199.867 190.435C199.592 190.062 199.409 189.735 199.134 189.362C198.859 188.989 198.584 188.615 198.239 188.264C198.101 188.078 197.895 187.913 197.757 187.727C197.62 187.54 197.413 187.376 197.205 187.211C196.516 186.51 195.641 185.946 194.788 185.451C194.327 185.215 193.936 184.958 193.405 184.744C192.944 184.508 192.436 184.364 191.998 184.198C191.052 183.889 189.989 183.694 188.972 183.639C187.932 183.514 186.96 183.599 186.011 183.752C185.572 183.818 185.016 183.999 184.645 184.043C184.089 184.224 183.742 184.337 183.324 184.472C182.49 184.744 181.701 185.154 180.982 185.542C179.566 186.388 178.496 187.353 177.798 188.043C177.449 188.388 177.169 188.71 177.006 188.918C176.843 189.125 176.727 189.24 176.727 189.24C176.727 189.24 176.751 189.077 176.821 188.823C176.892 188.569 177.08 188.199 177.314 187.737C177.549 187.275 177.829 186.721 178.319 186.1C178.739 185.499 179.298 184.855 179.949 184.257C180.6 183.66 181.461 182.995 182.388 182.539C182.83 182.241 183.456 182.037 183.85 181.833C184.406 181.652 184.962 181.471 185.519 181.29C186.097 181.179 186.653 180.998 187.255 180.957C187.555 180.936 187.857 180.916 188.157 180.895C188.458 180.874 188.781 180.923 189.081 180.903C189.683 180.862 190.33 180.96 190.977 181.058C191.625 181.157 192.201 181.278 192.824 181.538C194.024 181.919 195.201 182.463 196.26 183.121C197.389 183.757 198.332 184.53 199.09 185.442Z" fill="white"/>
<path d="M183.382 178.975C183.651 178.888 183.797 178.598 183.71 178.329C183.622 178.059 183.333 177.911 183.065 177.998C182.796 178.086 182.649 178.375 182.737 178.646C182.824 178.915 183.113 179.063 183.382 178.975Z" fill="white"/>
<path d="M205.787 190.439C206.056 190.352 206.203 190.062 206.115 189.793C206.028 189.523 205.739 189.375 205.47 189.462C205.201 189.55 205.054 189.839 205.142 190.11C205.229 190.379 205.519 190.526 205.787 190.439Z" fill="white"/>
<path d="M194.384 212.817C194.652 212.73 194.799 212.44 194.711 212.17C194.623 211.901 194.334 211.753 194.066 211.84C193.797 211.928 193.65 212.217 193.738 212.486C193.826 212.756 194.115 212.904 194.384 212.817Z" fill="white"/>
<path d="M171.73 200.354C171.452 200.444 171.312 200.721 171.403 201C171.493 201.279 171.77 201.421 172.047 201.331C172.326 201.24 172.466 200.963 172.375 200.683C172.307 200.474 172.009 200.263 171.73 200.354Z" fill="white"/>
<path d="M189.677 178.241C189.978 178.22 190.233 178.06 190.281 177.736C190.26 177.434 190.1 177.177 189.777 177.128C189.476 177.149 189.22 177.309 189.172 177.633C189.124 177.957 189.354 178.192 189.677 178.241Z" fill="white"/>
<path d="M205.888 196.424C205.91 196.726 206.07 196.982 206.393 197.032C206.694 197.011 206.949 196.851 206.997 196.526C206.976 196.225 206.816 195.968 206.493 195.919C206.169 195.87 205.937 196.1 205.888 196.424Z" fill="white"/>
<path d="M187.863 212.622C187.562 212.642 187.307 212.803 187.258 213.127C187.28 213.429 187.44 213.685 187.764 213.734C188.064 213.713 188.319 213.554 188.368 213.229C188.347 212.927 188.095 212.624 187.863 212.622Z" fill="white"/>
<path d="M171.583 194.461C171.562 194.159 171.401 193.902 171.077 193.854C170.777 193.874 170.521 194.035 170.473 194.359C170.494 194.661 170.654 194.917 170.978 194.966C171.301 195.015 171.604 194.763 171.583 194.461Z" fill="white"/>
<path d="M196.538 179.482C196.678 179.205 196.564 178.856 196.288 178.714C196.011 178.573 195.664 178.686 195.523 178.963C195.382 179.24 195.496 179.589 195.773 179.731C196.119 179.849 196.467 179.736 196.538 179.482Z" fill="white"/>
<path d="M204.415 202.535C204.275 202.812 204.389 203.161 204.665 203.302C204.942 203.443 205.289 203.331 205.429 203.054C205.571 202.776 205.457 202.427 205.18 202.286C204.834 202.167 204.557 202.258 204.415 202.535Z" fill="white"/>
<path d="M180.934 211.403C180.792 211.68 180.906 212.029 181.183 212.17C181.459 212.312 181.807 212.199 181.948 211.922C182.088 211.645 181.974 211.296 181.698 211.154C181.399 210.943 181.074 211.126 180.934 211.403Z" fill="white"/>
<path d="M173.102 188.258C173.243 187.981 173.129 187.632 172.852 187.491C172.576 187.349 172.229 187.462 172.088 187.739C171.947 188.016 172.061 188.365 172.337 188.507C172.637 188.717 172.961 188.535 173.102 188.258Z" fill="white"/>
<path d="M202.083 183.775C202.317 183.544 202.295 183.242 202.135 182.986C201.904 182.752 201.604 182.773 201.349 182.932C201.116 183.163 201.137 183.465 201.297 183.721C201.527 183.956 201.898 183.912 202.083 183.775Z" fill="white"/>
<path d="M200.45 208.068C200.216 208.297 200.238 208.599 200.398 208.856C200.628 209.09 200.929 209.069 201.184 208.909C201.417 208.679 201.396 208.378 201.235 208.121C201.075 207.864 200.682 207.838 200.45 208.068Z" fill="white"/>
<path d="M175.387 207.111C175.155 207.341 175.176 207.643 175.336 207.9C175.566 208.133 175.867 208.112 176.122 207.952C176.354 207.722 176.333 207.421 176.173 207.164C175.943 206.93 175.62 206.881 175.387 207.111Z" fill="white"/>
<path d="M177.091 182.795C177.323 182.565 177.302 182.264 177.142 182.007C176.913 181.773 176.612 181.793 176.356 181.954C176.124 182.183 176.145 182.486 176.305 182.742C176.465 182.999 176.835 182.955 177.091 182.795Z" fill="white"/>
</g>
<defs>
<clipPath id="clip0_10_91">
<rect width="292" height="332" fill="white" transform="translate(0.832458 90.2689) rotate(-18.0084)"/>
</clipPath>
</defs>
</svg>
